<?xml version="1.0" encoding="UTF-8" standalone="no" ?>
<!DOCTYPE svg PUBLIC "-//W3C//DTD SVG 1.1//EN" "http://www.w3.org/Graphics/SVG/1.1/DTD/svg11.dtd">
<svg xmlns="http://www.w3.org/2000/svg" xmlns:xlink="http://www.w3.org/1999/xlink" version="1.1" width="208" height="40" viewBox="0 0 208 40" xml:space="preserve">
<desc>Created with Fabric.js 5.2.4</desc>
<defs>
</defs>
<g transform="matrix(1 0 0 1 540 540)" id="a06d438d-2b64-4978-a453-43802ded5330"  >
<rect style="stroke: none; stroke-width: 1; stroke-dasharray: none; stroke-linecap: butt; stroke-dashoffset: 0; stroke-linejoin: miter; stroke-miterlimit: 4; fill: rgb(255,255,255); fill-rule: nonzero; opacity: 1; visibility: hidden;" vector-effect="non-scaling-stroke"  x="-540" y="-540" rx="0" ry="0" width="1080" height="1080" />
</g>
<g transform="matrix(1 0 0 1 540 540)" id="28ba9616-c760-48b1-800f-7e3acb6fa6a5"  >
</g>
<g transform="matrix(1 0 0 1 110.96 22.19)"  >
<g style="" vector-effect="non-scaling-stroke"   >
		<g transform="matrix(0.13 0 0 -0.13 75.06 -9)"  >
<path style="stroke: none; stroke-width: 1; stroke-dasharray: none; stroke-linecap: butt; stroke-dashoffset: 0; stroke-linejoin: miter; stroke-miterlimit: 4; fill: rgb(0,0,0); fill-rule: nonzero; opacity: 1;" vector-effect="non-scaling-stroke"  transform=" translate(-2500, -15300)" d="M 2490 15300 C 2490 15295 2495 15290 2500 15290 C 2506 15290 2510 15295 2510 15300 C 2510 15306 2506 15310 2500 15310 C 2495 15310 2490 15306 2490 15300 z" stroke-linecap="round" />
</g>
		<g transform="matrix(0.13 0 0 -0.13 -91.74 0.33)"  >
<path style="stroke: none; stroke-width: 1; stroke-dasharray: none; stroke-linecap: butt; stroke-dashoffset: 0; stroke-linejoin: miter; stroke-miterlimit: 4; fill: rgb(0,0,0); fill-rule: nonzero; opacity: 1;" vector-effect="non-scaling-stroke"  transform=" translate(-1248.98, -15230)" d="M 1200 15230 L 1200 15160 L 1228 15160 C 1266 15160 1288 15179 1296 15217 C 1301 15243 1297 15254 1277 15274 C 1262 15288 1239 15300 1225 15300 C 1201 15300 1200 15298 1200 15230 z M 1272 15255 C 1287 15222 1269 15180 1240 15180 C 1223 15180 1220 15186 1220 15230 C 1220 15274 1223 15280 1240 15280 C 1252 15280 1265 15270 1272 15255 z" stroke-linecap="round" />
</g>
		<g transform="matrix(0.13 0 0 -0.13 -75.64 0.3)"  >
<path style="stroke: none; stroke-width: 1; stroke-dasharray: none; stroke-linecap: butt; stroke-dashoffset: 0; stroke-linejoin: miter; stroke-miterlimit: 4; fill: rgb(0,0,0); fill-rule: nonzero; opacity: 1;" vector-effect="non-scaling-stroke"  transform=" translate(-1369.75, -15230.25)" d="M 1337 15282 C 1316 15259 1315 15196 1336 15176 C 1356 15156 1394 15155 1410 15175 C 1428 15197 1415 15206 1395 15186 C 1360 15151 1324 15208 1346 15264 C 1353 15283 1381 15285 1398 15268 C 1404 15262 1413 15260 1417 15264 C 1427 15274 1392 15300 1370 15300 C 1361 15300 1346 15292 1337 15282 z" stroke-linecap="round" />
</g>
		<g transform="matrix(0.13 0 0 -0.13 -58.96 0.32)"  >
<path style="stroke: none; stroke-width: 1; stroke-dasharray: none; stroke-linecap: butt; stroke-dashoffset: 0; stroke-linejoin: miter; stroke-miterlimit: 4; fill: rgb(0,0,0); fill-rule: nonzero; opacity: 1;" vector-effect="non-scaling-stroke"  transform=" translate(-1494.88, -15230.07)" d="M 1461 15268 L 1484 15237 L 1462 15198 C 1437 15155 1448 15145 1475 15187 L 1493 15214 L 1514 15187 C 1546 15147 1554 15154 1528 15198 L 1506 15237 L 1529 15268 C 1541 15286 1547 15300 1541 15300 C 1535 15300 1523 15288 1513 15274 L 1496 15248 L 1477 15274 C 1467 15288 1454 15300 1448 15300 C 1443 15300 1449 15286 1461 15268 z" stroke-linecap="round" />
</g>
		<g transform="matrix(0.13 0 0 -0.13 -42.27 0.33)"  >
<path style="stroke: none; stroke-width: 1; stroke-dasharray: none; stroke-linecap: butt; stroke-dashoffset: 0; stroke-linejoin: miter; stroke-miterlimit: 4; fill: rgb(0,0,0); fill-rule: nonzero; opacity: 1;" vector-effect="non-scaling-stroke"  transform=" translate(-1620.01, -15230.04)" d="M 1577 15293 C 1573 15290 1570 15258 1570 15223 L 1570 15160 L 1604 15160 C 1623 15160 1645 15163 1654 15166 C 1672 15173 1676 15215 1660 15225 C 1653 15229 1653 15237 1660 15250 C 1667 15264 1666 15273 1654 15284 C 1639 15300 1589 15306 1577 15293 z M 1645 15260 C 1645 15251 1634 15244 1618 15242 C 1595 15239 1590 15243 1590 15260 C 1590 15277 1595 15281 1618 15278 C 1634 15276 1645 15269 1645 15260 z M 1650 15200 C 1650 15184 1643 15180 1620 15180 C 1597 15180 1590 15184 1590 15200 C 1590 15216 1597 15220 1620 15220 C 1643 15220 1650 15216 1650 15200 z" stroke-linecap="round" />
</g>
		<g transform="matrix(0.13 0 0 -0.13 8.12 0.33)"  >
<path style="stroke: none; stroke-width: 1; stroke-dasharray: none; stroke-linecap: butt; stroke-dashoffset: 0; stroke-linejoin: miter; stroke-miterlimit: 4; fill: rgb(0,0,0); fill-rule: nonzero; opacity: 1;" vector-effect="non-scaling-stroke"  transform=" translate(-1997.98, -15230)" d="M 1950 15230 C 1950 15190 1954 15160 1960 15160 C 1966 15160 1970 15171 1970 15184 C 1970 15222 1986 15223 2014 15188 C 2028 15170 2042 15159 2045 15162 C 2049 15166 2040 15185 2025 15205 L 1997 15241 L 2019 15263 C 2054 15301 2043 15307 2005 15270 L 1970 15236 L 1970 15268 C 1970 15286 1966 15300 1960 15300 C 1954 15300 1950 15270 1950 15230 z" stroke-linecap="round" />
</g>
		<g transform="matrix(0.13 0 0 -0.13 24.39 0.33)"  >
<path style="stroke: none; stroke-width: 1; stroke-dasharray: none; stroke-linecap: butt; stroke-dashoffset: 0; stroke-linejoin: miter; stroke-miterlimit: 4; fill: rgb(0,0,0); fill-rule: nonzero; opacity: 1;" vector-effect="non-scaling-stroke"  transform=" translate(-2120, -15230)" d="M 2070 15230 C 2070 15190 2074 15160 2080 15160 C 2086 15160 2090 15181 2091 15208 C 2091 15249 2093 15252 2102 15233 C 2108 15220 2116 15210 2120 15210 C 2124 15210 2132 15220 2138 15233 C 2147 15252 2149 15249 2149 15208 C 2150 15181 2155 15160 2160 15160 C 2166 15160 2170 15190 2170 15230 C 2170 15305 2156 15322 2137 15270 C 2131 15254 2123 15240 2120 15240 C 2117 15240 2109 15254 2103 15270 C 2084 15322 2070 15305 2070 15230 z" stroke-linecap="round" />
</g>
		<g transform="matrix(0.13 0 0 -0.13 -25.61 2.33)"  >
<path style="stroke: none; stroke-width: 1; stroke-dasharray: none; stroke-linecap: butt; stroke-dashoffset: 0; stroke-linejoin: miter; stroke-miterlimit: 4; fill: rgb(0,0,0); fill-rule: nonzero; opacity: 1;" vector-effect="non-scaling-stroke"  transform=" translate(-1745, -15215)" d="M 1712 15258 C 1705 15251 1700 15232 1700 15215 C 1700 15179 1715 15160 1745 15160 C 1775 15160 1790 15179 1790 15215 C 1790 15251 1775 15270 1745 15270 C 1733 15270 1719 15265 1712 15258 z M 1765 15215 C 1765 15182 1761 15175 1746 15175 C 1723 15175 1710 15208 1721 15238 C 1736 15278 1765 15262 1765 15215 z" stroke-linecap="round" />
</g>
		<g transform="matrix(0.13 0 0 -0.13 -8.93 2)"  >
<path style="stroke: none; stroke-width: 1; stroke-dasharray: none; stroke-linecap: butt; stroke-dashoffset: 0; stroke-linejoin: miter; stroke-miterlimit: 4; fill: rgb(0,0,0); fill-rule: nonzero; opacity: 1;" vector-effect="non-scaling-stroke"  transform=" translate(-1870.1, -15217.5)" d="M 1828 15245 C 1820 15227 1819 15210 1826 15192 C 1834 15170 1841 15165 1870 15165 C 1899 15165 1906 15170 1914 15192 C 1929 15234 1908 15270 1870 15270 C 1847 15270 1837 15264 1828 15245 z M 1888 15248 C 1918 15218 1887 15154 1855 15180 C 1830 15200 1842 15260 1870 15260 C 1873 15260 1881 15255 1888 15248 z" stroke-linecap="round" />
</g>
		<g transform="matrix(0.13 0 0 -0.13 41.51 2.44)"  >
<path style="stroke: none; stroke-width: 1; stroke-dasharray: none; stroke-linecap: butt; stroke-dashoffset: 0; stroke-linejoin: miter; stroke-miterlimit: 4; fill: rgb(0,0,0); fill-rule: nonzero; opacity: 1;" vector-effect="non-scaling-stroke"  transform=" translate(-2248.4, -15214.19)" d="M 2210 15256 C 2195 15237 2203 15236 2230 15253 C 2247 15263 2252 15262 2260 15250 C 2265 15242 2266 15234 2262 15233 C 2258 15232 2243 15229 2228 15226 C 2206 15221 2200 15214 2200 15194 C 2200 15165 2225 15152 2251 15169 C 2263 15176 2270 15176 2270 15170 C 2270 15165 2277 15160 2286 15160 C 2298 15160 2300 15163 2292 15173 C 2286 15180 2280 15203 2278 15225 C 2275 15260 2271 15265 2249 15268 C 2235 15270 2218 15264 2210 15256 z M 2260 15190 C 2254 15179 2243 15170 2235 15170 C 2227 15170 2220 15179 2220 15190 C 2220 15205 2227 15210 2245 15210 C 2268 15210 2269 15208 2260 15190 z" stroke-linecap="round" />
</g>
		<g transform="matrix(0.13 0 0 -0.13 57.48 2.93)"  >
<path style="stroke: none; stroke-width: 1; stroke-dasharray: none; stroke-linecap: butt; stroke-dashoffset: 0; stroke-linejoin: miter; stroke-miterlimit: 4; fill: rgb(0,0,0); fill-rule: nonzero; opacity: 1;" vector-effect="non-scaling-stroke"  transform=" translate(-2368.19, -15210.5)" d="M 2331 15210 L 2333 15155 L 2339 15198 C 2343 15221 2352 15246 2358 15252 C 2376 15270 2398 15244 2403 15197 C 2406 15166 2407 15170 2406 15210 L 2405 15265 L 2368 15265 L 2330 15266 L 2331 15210 z" stroke-linecap="round" />
</g>
		<g transform="matrix(0.13 0 0 -0.13 75.09 2.19)"  >
<path style="stroke: none; stroke-width: 1; stroke-dasharray: none; stroke-linecap: butt; stroke-dashoffset: 0; stroke-linejoin: miter; stroke-miterlimit: 4; fill: rgb(0,0,0); fill-rule: nonzero; opacity: 1;" vector-effect="non-scaling-stroke"  transform=" translate(-2500.22, -15216.08)" d="M 2473 15263 C 2486 15260 2490 15248 2490 15215 C 2490 15178 2487 15171 2468 15167 C 2455 15165 2470 15163 2500 15163 C 2530 15163 2545 15165 2533 15167 C 2513 15171 2510 15178 2510 15221 C 2510 15268 2509 15270 2483 15269 C 2466 15268 2462 15266 2473 15263 z" stroke-linecap="round" />
</g>
		<g transform="matrix(0.13 0 0 -0.13 91.67 2.1)"  >
<path style="stroke: none; stroke-width: 1; stroke-dasharray: none; stroke-linecap: butt; stroke-dashoffset: 0; stroke-linejoin: miter; stroke-miterlimit: 4; fill: rgb(0,0,0); fill-rule: nonzero; opacity: 1;" vector-effect="non-scaling-stroke"  transform=" translate(-2624.55, -15216.79)" d="M 2585 15259 C 2581 15253 2581 15246 2585 15242 C 2588 15239 2595 15242 2600 15249 C 2608 15263 2640 15258 2640 15242 C 2640 15238 2625 15230 2608 15225 C 2582 15217 2575 15210 2575 15190 C 2575 15166 2578 15165 2630 15164 C 2660 15163 2679 15165 2673 15167 C 2666 15170 2660 15187 2660 15205 C 2660 15223 2657 15245 2654 15254 C 2647 15272 2595 15276 2585 15259 z M 2640 15201 C 2640 15187 2612 15168 2600 15175 C 2580 15187 2590 15210 2615 15210 C 2629 15210 2640 15206 2640 15201 z" stroke-linecap="round" />
</g>
</g>
</g>
</svg>